<?xml version="1.0" encoding="UTF-8"?>
<svg width="118px" height="102px" viewBox="0 0 118 102" version="1.1" xmlns="http://www.w3.org/2000/svg" xmlns:xlink="http://www.w3.org/1999/xlink">
    <!-- Generator: Sketch 50 (54983) - http://www.bohemiancoding.com/sketch -->
    <title>icon-community</title>
    <desc>Created with Sketch.</desc>
    <defs></defs>
    <g id="Page-1" stroke="none" stroke-width="1" fill="none" fill-rule="evenodd">
        <g id="icon" transform="translate(-301.000000, -230.000000)">
            <g id="icon-community" transform="translate(303.000000, 233.000000)">
                <path d="M66.1816958,43 C72.6904441,43 77.9919246,48.8263795 77.9919246,55.9125168 C77.9919246,60.1117093 76.102288,63.1036339 74.5800808,65.5181696 C70.1184388,72.4468371 58.9905787,81.1076716 58.5181696,81.4751009 C58.0457604,81.8425303 57.5208614,82 56.9959623,82 C56.4710633,82 55.9461642,81.8425303 55.473755,81.4751009 C55.0013459,81.1076716 43.820996,72.4993271 39.4118439,65.5181696 C37.8896366,63.1561238 36,60.1641992 36,55.9125168 C36,48.7738896 41.3014805,43 47.8102288,43 C51.4320323,43 54.7913863,44.8371467 56.9959623,47.8290713 C59.2005384,44.8371467 62.5598923,43 66.1816958,43 Z M71.0786483,65.3603385 C72.400254,63.3270989 74.7384796,60.4297325 74.6876486,56.7699012 C74.6876486,50.5685204 71.0278173,46.2478862 65.3855774,46.2478862 C62.234056,46.2478862 58.8792106,49.2469146 56.947633,51.8392951 C55.0668864,49.2469146 51.66121,46.2478862 48.5096886,46.2478862 C42.9182797,46.2478862 39.4617723,50.6193514 39.4617723,56.7699012 C39.4617723,60.4297325 41.5966739,63.022113 42.9182797,65.1061836 C47.0355899,70.8500855 55.2702103,77.2547903 55.6768582,77.5597762 C56.0835062,77.8647622 56.5409851,78.0172551 56.998464,78.0172551 C57.4559429,78.0172551 57.9134218,77.8647622 58.3200697,77.5597762 C58.7267177,77.2547903 67.1138311,70.9009165 71.0786483,65.3603385 Z" id="Combined-Shape" fill="#F26647" fill-rule="nonzero"></path>
                <polyline id="Rectangle-8" stroke="#F26647" stroke-width="4" stroke-linecap="round" points="93 50 93 96.3561644 21 96.3561644 21 50 21 50"></polyline>
                <polyline id="Rectangle-8-Copy" stroke="#F26647" stroke-width="4" stroke-linecap="round" transform="translate(57.000000, 57.000000) rotate(-315.000000) translate(-57.000000, -57.000000) " points="17 97 17 17 97 17"></polyline>
            </g>
        </g>
    </g>
</svg>