<?xml version="1.0" encoding="UTF-8"?>
<svg width="26px" height="26px" viewBox="0 0 26 26" version="1.1" xmlns="http://www.w3.org/2000/svg" xmlns:xlink="http://www.w3.org/1999/xlink">
    <!-- Generator: Sketch 50 (54983) - http://www.bohemiancoding.com/sketch -->
    <title>Help</title>
    <desc>Created with Sketch.</desc>
    <defs></defs>
    <g id="Page-1" stroke="none" stroke-width="1" fill="none" fill-rule="evenodd">
        <g id="icon" transform="translate(-220.000000, -234.000000)">
            <g id="Help" transform="translate(221.000000, 235.000000)">
                <circle id="Oval-4" stroke="#FFFFFF" stroke-width="2" cx="12" cy="12" r="12"></circle>
                <path d="M11.8,5 C13.1,5 14.16,5.34 14.96,6.06 C15.76,6.76 16.16,7.72 16.16,8.94 C16.16,9.94 15.9,10.76 15.42,11.4 C15.24,11.6 14.66,12.14 13.7,12.98 C13.34,13.28 13.08,13.62 12.9,13.98 C12.7,14.38 12.6,14.8 12.6,15.28 L12.6,15.56 L10.3,15.56 L10.3,15.28 C10.3,14.52 10.42,13.86 10.7,13.32 C10.96,12.78 11.74,11.94 13.04,10.78 L13.28,10.5 C13.64,10.06 13.82,9.58 13.82,9.08 C13.82,8.42 13.62,7.9 13.26,7.52 C12.88,7.14 12.34,6.96 11.66,6.96 C10.78,6.96 10.16,7.22 9.78,7.78 C9.44,8.24 9.28,8.9 9.28,9.74 L7,9.74 C7,8.26 7.42,7.1 8.3,6.26 C9.16,5.42 10.32,5 11.8,5 Z M11.44,16.54 C11.88,16.54 12.26,16.68 12.56,16.96 C12.84,17.24 13,17.6 13,18.04 C13,18.48 12.84,18.86 12.54,19.14 C12.24,19.42 11.88,19.56 11.44,19.56 C11,19.56 10.64,19.4 10.34,19.12 C10.04,18.84 9.9,18.48 9.9,18.04 C9.9,17.6 10.04,17.24 10.34,16.96 C10.64,16.68 11,16.54 11.44,16.54 Z" id="？" fill="#FFFFFF"></path>
            </g>
        </g>
    </g>
</svg>