<?xml version="1.0" encoding="UTF-8"?>
<svg width="50px" height="55px" viewBox="0 0 50 55" version="1.1" xmlns="http://www.w3.org/2000/svg" xmlns:xlink="http://www.w3.org/1999/xlink">
    <!-- Generator: Sketch 50 (54983) - http://www.bohemiancoding.com/sketch -->
    <title>icon-joblogo</title>
    <desc>Created with Sketch.</desc>
    <defs></defs>
    <g id="Page-1" stroke="none" stroke-width="1" fill="none" fill-rule="evenodd">
        <g id="-" transform="translate(-395.000000, -181.000000)">
            <g id="icon-joblogo" transform="translate(375.000000, 164.000000)">
                <rect id="Rectangle-7" x="0" y="0" width="90" height="90"></rect>
                <g id="logo" transform="translate(20.000000, 17.000000)" fill="#FFFFFF" fill-rule="nonzero">
                    <path d="M9.9543378,16.8390777 L9.9543378,15.0477641 L7.9722252,15.0477641 L7.9722252,13.5364718 C7.9722252,13.1123217 8.0202681,12.7348418 8.16165147,12.3587346 C8.20832172,12.2640214 8.25636461,12.2146059 8.25636461,12.1693083 C8.20832172,12.1226381 8.0202681,12.1226381 7.73750134,12.1226381 C7.50140483,12.0745952 6.84115818,12.0279249 5.75676139,12.0279249 L5.75676139,15.0477641 L3.16107239,15.0477641 L3.16107239,16.8390777 L5.75538874,16.8390777 L5.75538874,19.1972976 L2.78359249,20.0003003 L3.72797855,22.1704665 L5.6606756,21.3688365 L5.6606756,24.2472922 C5.75538874,24.8114531 5.04847185,25.0008794 3.49050938,24.8114531 C3.91603217,25.2850188 4.24546917,25.9919357 4.38685255,26.8869062 C6.88782842,27.0296622 8.11360858,26.462756 7.9722252,25.1916783 L7.9722252,20.5219088 C8.16165147,20.4724933 8.44304558,20.3791528 8.91523861,20.2377694 C9.2927185,20.1910992 9.57548525,20.0950134 9.81158177,20.0030456 L9.76353887,17.9715174 C9.15133512,18.2556568 8.48971582,18.4903807 7.87613941,18.679807 L7.87613941,16.8404504 L9.9543378,16.8404504 L9.9543378,16.8390777 Z" id="Shape"></path>
                    <path d="M37.9249115,4.00887936 L37.9249115,3.20724933 C37.9249115,2.64034316 37.9702091,2.07480965 38.1143378,1.50927614 C38.2557212,1.08375335 38.3490617,0.754316354 38.3490617,0.471549598 C38.6332011,0.187410188 37.5007614,0.0460268097 34.9531153,0.0460268097 L31.7905201,0.0460268097 L31.7905201,4.00887936 L23.1126005,4.00887936 L23.1126005,2.54700268 L0.0478927614,2.54700268 L0.0478927614,8.0197748 L3.20774263,8.0197748 L3.20774263,11.1329544 L8.72718499,11.1329544 L8.72718499,8.0197748 L13.7744343,8.0197748 L13.7744343,11.1329544 L19.2938767,11.1329544 L19.2938767,8.0197748 L22.2656729,8.0197748 L22.2656729,25.4236568 L47.6419303,25.4236568 L47.6419303,4.01025201 L37.9249115,4.01025201 L37.9249115,4.00887936 Z M31.7905201,20.3764075 L28.1598499,20.3764075 L28.1598499,17.028504 L31.7905201,17.028504 L31.7905201,20.3764075 Z M31.981319,12.4054048 L28.1612225,12.4054048 L28.1612225,9.05750134 L31.981319,9.05750134 L31.981319,12.4054048 Z M41.3208579,20.3764075 L37.688815,20.3764075 L37.688815,17.028504 L41.3208579,17.028504 L41.3208579,20.3764075 Z M41.3208579,12.4054048 L37.688815,12.4054048 L37.688815,9.05750134 L41.3208579,9.05750134 L41.3208579,12.4054048 Z" id="Shape"></path>
                    <path d="M14.5760643,17.8315067 C14.9535442,18.4903807 15.1415979,19.1506273 15.1415979,19.8575442 C17.5478606,20.0003003 18.7269705,19.5281072 18.6789276,18.4903807 C18.8216836,17.687378 18.963067,16.226874 19.1511206,14.1500483 C19.1977909,13.7258981 19.2444611,13.2523324 19.292504,12.7828847 L10.0476783,12.7828847 L10.0476783,14.4794853 L12.5006113,14.4794853 C12.4058981,16.6976944 11.5109276,18.2048686 9.90629491,19.0078713 C10.6132118,19.7614584 11.0840322,20.1869812 11.2748311,20.3297373 L10.5665416,20.3297373 L10.5665416,27.0269169 L12.6886649,27.0269169 L12.6886649,26.177244 L16.2740375,26.177244 L16.2740375,27.0269169 L18.7269705,27.0269169 L18.7269705,20.3297373 L11.6042681,20.3297373 C13.7263914,18.9131582 14.764118,16.9804611 14.764118,14.4794853 L16.8862413,14.4794853 C16.6034745,15.7999786 16.4620912,16.6976944 16.4154209,17.2165576 C16.4620912,17.7820912 15.8485147,17.9715174 14.5760643,17.8315067 Z M12.6886649,22.0757534 L16.3687507,22.0757534 L16.3687507,24.5753566 L12.6886649,24.5753566 L12.6886649,22.0757534 Z" id="Shape"></path>
                    <path d="M19.292504,27.8765898 L13.3969544,27.8765898 L13.3969544,34.6218123 C11.8403646,34.9045791 10.330445,35.0926327 8.9632815,35.2340161 L8.9632815,27.8765898 L3.20774263,27.8765898 L3.20774263,36.083689 C1.84057909,36.5092118 0.754809651,36.742563 0.0478927614,36.742563 C0.189276139,37.4028097 0.47341555,38.393866 0.897565684,39.667689 C1.18033244,41.0348525 1.4630992,42.0272815 1.74723861,42.5941877 L1.93529223,42.5941877 C2.12334584,42.5941877 2.54886863,42.4994745 3.20774263,42.3553458 C4.62294906,41.6470563 8.0202681,40.7520858 13.3969544,39.667689 L13.3969544,54.952193 L19.292504,45.4218552 L19.292504,38.5832922 C19.7180268,38.5832922 20.3782735,38.5379946 21.2265737,38.3952386 C22.0762466,38.2538552 22.7364933,38.1124718 23.3020268,37.9697158 C23.3020268,36.413126 23.3967399,34.7618231 23.5381233,32.9691367 L19.292504,33.7721394 L19.292504,27.8765898 Z" id="Shape"></path>
                    <path d="M49.9534799,31.8847399 L49.9534799,27.0749598 L20.9904772,27.0749598 L20.9904772,31.8847399 L28.8200965,31.8847399 C28.254563,34.2910027 27.6890295,36.6519678 27.1221233,39.0074424 L40.2364611,39.0074424 C39.9523217,41.8392279 39.4815013,43.2997319 38.7745845,43.4411153 C37.9262842,43.5358284 35.9922145,43.5358284 33.0670885,43.4411153 C34.0581448,44.8096515 34.577008,46.6956783 34.7650617,49.0552708 C40.0950777,49.0552708 43.2549276,48.5830777 44.2446113,47.5920214 C45.519807,46.5076247 46.508118,42.0272815 47.2164075,34.1962895 L34.7650617,34.1962895 L35.6133619,31.8833673 L49.9534799,31.8833673 L49.9534799,31.8847399 Z" id="Shape"></path>
                </g>
            </g>
        </g>
    </g>
</svg>