<?xml version="1.0" encoding="UTF-8"?>
<svg width="16px" height="15px" viewBox="0 0 16 15" version="1.1" xmlns="http://www.w3.org/2000/svg" xmlns:xlink="http://www.w3.org/1999/xlink">
    <!-- Generator: Sketch 50 (54983) - http://www.bohemiancoding.com/sketch -->
    <title>icon-skill</title>
    <desc>Created with Sketch.</desc>
    <defs></defs>
    <g id="Page-1" stroke="none" stroke-width="1" fill="none" fill-rule="evenodd">
        <g id="subscribe" transform="translate(-315.000000, -203.000000)" fill="#000000" fill-rule="nonzero">
            <g id="banner" transform="translate(0.000000, 64.000000)">
                <g id="Group-4" transform="translate(285.000000, 139.000000)">
                    <g id="icon-skill" transform="translate(30.000000, 0.000000)">
                        <path d="M15.4281124,14.5124498 L0.57188755,14.5124498 C0.375903614,14.5124498 0.195983936,14.4096386 0.0995983936,14.2393574 C0.00321285141,14.0722892 -1.71390679e-15,13.8634538 0.0963855422,13.6931727 L7.75903614,0.279518072 C7.85542169,0.109236948 8.03855422,0.00321285141 8.23453815,0.00321285141 L8.24096386,0.00321285141 C8.44016064,0.00642570281 8.62008032,0.115662651 8.71646586,0.292369478 L11.8746988,6.1815261 C12.0160643,6.44819277 11.9164659,6.77911647 11.653012,6.92048193 C11.3863454,7.06184739 11.0554217,6.962249 10.9140562,6.69879518 L8.22168675,1.68032129 L1.51325301,13.4200803 L14.5188755,13.4200803 L11.9485944,8.62650602 C11.8072289,8.35983936 11.9068273,8.02891566 12.1702811,7.8875502 C12.4369478,7.74618474 12.7678715,7.84578313 12.9092369,8.10923695 L15.913253,13.7092369 C16.0032129,13.8795181 16,14.0819277 15.9004016,14.248996 C15.8008032,14.4128514 15.6208835,14.5124498 15.4281124,14.5124498 Z" id="Shape"></path>
                        <path d="M10.8048193,6.15582329 L5.49718876,6.15582329 C5.19518072,6.15582329 4.95100402,5.91164659 4.95100402,5.60963855 C4.95100402,5.30763052 5.19518072,5.06345382 5.49718876,5.06345382 L10.8048193,5.06345382 C11.1068273,5.06345382 11.351004,5.30763052 11.351004,5.60963855 C11.351004,5.91164659 11.1068273,6.15582329 10.8048193,6.15582329 Z M13.3204819,10.8369478 L2.81767068,10.8369478 C2.51566265,10.8369478 2.27148594,10.5927711 2.27148594,10.2907631 C2.27148594,9.98875502 2.51566265,9.74457831 2.81767068,9.74457831 L13.3204819,9.74457831 C13.62249,9.74457831 13.8666667,9.98875502 13.8666667,10.2907631 C13.8666667,10.5927711 13.62249,10.8369478 13.3204819,10.8369478 Z" id="Shape"></path>
                    </g>
                </g>
            </g>
        </g>
    </g>
</svg>