<?xml version="1.0" encoding="UTF-8"?>
<svg width="18px" height="18px" viewBox="0 0 18 18" version="1.1" xmlns="http://www.w3.org/2000/svg" xmlns:xlink="http://www.w3.org/1999/xlink">
    <!-- Generator: Sketch 50 (54983) - http://www.bohemiancoding.com/sketch -->
    <title>icon-action</title>
    <desc>Created with Sketch.</desc>
    <defs></defs>
    <g id="Page-1" stroke="none" stroke-width="1" fill="none" fill-rule="evenodd">
        <g id="subscribe" transform="translate(-296.000000, -1017.000000)" fill="#D8D6D5" fill-rule="nonzero">
            <g id="标签栏" transform="translate(0.000000, 1010.000000)">
                <g id="邮箱" transform="translate(248.000000, 7.000000)">
                    <g id="icon-action" transform="translate(48.000000, 0.000000)">
                        <path d="M17.9906087,7.00901559 C17.9904325,6.69528304 17.8444207,6.40039263 17.5974261,6.21493096 L9.56723478,0.200926503 C9.22808258,-0.0479211954 8.77191742,-0.0479211954 8.43276522,0.200926503 L0.403826087,6.21493096 C0.294591852,6.29819098 0.204067341,6.40449461 0.138365217,6.5266637 C0.105557559,6.55268237 0.0779276156,6.58490863 0.056973913,6.62159465 C0.0104353817,6.70666554 -0.00213060084,6.80689754 0.0219130435,6.90125612 C0.0181565217,6.93717595 0.00939130435,6.97181292 0.00939130435,7.00901559 L0.00939130435,17.0011403 C0.00939130435,17.5437862 0.44013913,17.9863697 0.97106087,17.9863697 L17.0289391,17.9863697 C17.5589159,17.9835637 17.9878697,17.5441009 17.9906087,17.0011403 L17.9906087,7.00901559 Z M8.85975652,0.798734967 C8.89982609,0.767946548 8.94866087,0.751269488 9,0.751269488 C9.05133913,0.751269488 9.10017391,0.766663697 9.14024348,0.798734967 L17.0289391,6.70626281 L9,11.4091938 L0.954782609,6.71909131 L8.85975652,0.798734967 Z M17.1979826,17.1743252 C17.1530824,17.2201664 17.0923278,17.2459858 17.0289391,17.2461648 L0.97106087,17.2461648 C0.839665124,17.2461648 0.733147826,17.137038 0.733147826,17.0024232 L0.733147826,7.44261915 L8.82093913,12.1583786 C8.93246518,12.2228523 9.068787,12.2228523 9.18031304,12.1583786 L17.2668522,7.42081069 L17.2681043,17.0011403 C17.2668934,17.0658644 17.2418454,17.1277272 17.1979826,17.1743252 Z" id="Shape"></path>
                    </g>
                </g>
            </g>
        </g>
    </g>
</svg>