<?xml version="1.0" encoding="UTF-8"?>
<svg width="22px" height="22px" viewBox="0 0 22 22" version="1.1" xmlns="http://www.w3.org/2000/svg" xmlns:xlink="http://www.w3.org/1999/xlink">
    <!-- Generator: Sketch 50 (54983) - http://www.bohemiancoding.com/sketch -->
    <title>icon-share</title>
    <desc>Created with Sketch.</desc>
    <defs></defs>
    <g id="Page-1" stroke="none" stroke-width="1" fill="none" fill-rule="evenodd">
        <g id="subscribe" transform="translate(-304.000000, -32.000000)" fill="#F3AFA0" fill-rule="nonzero">
            <g id="导航栏">
                <g id="icon-share" transform="translate(304.000000, 32.000000)">
                    <path d="M21.445404,0.618871108 C21.4377665,0.610212351 21.4303955,0.601375988 21.422092,0.593072485 C21.4138329,0.584813373 21.4049965,0.577397941 21.3963377,0.569804903 C21.0421729,0.227806702 20.5607467,0.0167553215 20.0306539,0.0167553215 L13.8377865,0.0167553215 C13.5435224,0.0167553215 13.3049407,0.255337034 13.3049407,0.549601136 C13.3049407,0.843865239 13.5435224,1.08244695 13.8377865,1.08244695 L20.0306983,1.08244695 C20.0773668,1.08244695 20.1228807,1.08710935 20.1676841,1.09399196 L7.12628244,14.1353493 C6.91820613,14.34347 6.91820613,14.6808058 7.12628244,14.8889265 C7.23032057,14.993009 7.36668473,15.0450059 7.50304884,15.0450059 C7.63941295,15.0450059 7.7758215,14.9929646 7.87981524,14.8889265 L20.9212169,1.84756916 C20.9280995,1.89237261 20.9327619,1.93784214 20.9327619,1.98455495 L20.9327619,8.22231467 C20.9327619,8.51657877 21.1713437,8.75516049 21.4656078,8.75516049 C21.7598719,8.75516049 21.9984536,8.51657877 21.9984536,8.22231467 L21.9984536,1.98451056 C21.9984536,1.45446218 21.7874022,0.973035961 21.445404,0.618871108 Z" id="Shape"></path>
                    <path d="M21.4656078,12.9973238 C21.1712993,12.9973238 20.9327619,13.2359055 20.9327619,13.5301696 L20.9327619,18.8169327 C20.9327619,19.8231677 20.1140887,20.6417965 19.1078538,20.6417965 L2.90374563,20.6417965 C1.89751067,20.6417965 1.07888187,19.8231677 1.07888187,18.8169328 L1.07888187,2.90731076 C1.07888187,1.9010758 1.89751067,1.08244699 2.90374563,1.08244699 L8.29596785,1.08244699 C8.59023195,1.08244699 8.82881366,0.843865282 8.82881366,0.549601179 C8.82881366,0.255337077 8.59023195,0.0167553649 8.29596785,0.0167553649 L2.90374563,0.0167553215 C1.30987054,0.0167553215 0.0131901933,1.31348006 0.0131901933,2.90731076 L0.0131901933,18.8168884 C0.0131901933,20.4107635 1.30991493,21.7074438 2.90374563,21.7074438 L19.1078537,21.7074438 C20.7017288,21.7074438 21.9984536,20.4107634 21.9984536,18.8168883 L21.9984536,13.5301697 C21.9984536,13.2359055 21.7599163,12.9973238 21.4656078,12.9973238 Z" id="Shape"></path>
                </g>
            </g>
        </g>
    </g>
</svg>