<?xml version="1.0" encoding="UTF-8"?>
<svg width="16px" height="16px" viewBox="0 0 16 16" version="1.1" xmlns="http://www.w3.org/2000/svg" xmlns:xlink="http://www.w3.org/1999/xlink">
    <!-- Generator: Sketch 50 (54983) - http://www.bohemiancoding.com/sketch -->
    <title>icon-gcb</title>
    <desc>Created with Sketch.</desc>
    <defs></defs>
    <g id="Page-1" stroke="none" stroke-width="1" fill="none" fill-rule="evenodd">
        <g id="subscribe" transform="translate(-183.000000, -203.000000)" fill="#000000" fill-rule="nonzero">
            <g id="banner" transform="translate(0.000000, 64.000000)">
                <g id="Group-3" transform="translate(159.000000, 139.000000)">
                    <g id="icon-gcb" transform="translate(24.000000, 0.000000)">
                        <path d="M7.99617682,15.5545998 C7.78207885,15.5545998 7.56798088,15.5125448 7.36917563,15.4284349 C5.2702509,14.5433692 2.90179211,14.1686977 0.51995221,14.3464755 C0.388052569,14.3560335 0.256152927,14.3101553 0.158661888,14.2203106 C0.0611708483,14.1304659 0.00573476703,14.0023895 0.00573476703,13.8704898 L0.00573476703,0.5390681 C0.00573476703,0.28864994 0.198805257,0.0802867384 0.447311828,0.0630824373 C2.34551971,-0.0783751493 4.29342891,0.118518519 6.08267622,0.632735962 C6.33691756,0.705376344 6.48219833,0.971087216 6.40955795,1.22341697 C6.33691756,1.47574671 6.07120669,1.62293907 5.81887694,1.55029869 C4.27622461,1.10681004 2.60549582,0.913739546 0.961529271,0.988291517 L0.961529271,13.3620072 C3.32043011,13.260693 5.6525687,13.6659498 7.74002389,14.5452808 C7.90059737,14.6121864 8.09175627,14.6121864 8.25232975,14.5452808 C10.3378734,13.6659498 12.6719235,13.2587814 15.0308244,13.3620072 L15.0308244,0.98255675 C12.9510155,0.875507766 10.8864994,1.36487455 9.48148148,1.81218638 C8.87933094,2.00334528 8.47407407,2.47933094 8.47407407,2.99354839 L8.47407407,12.9739546 C8.47407407,13.2377539 8.25997611,13.4518519 7.99617682,13.4518519 C7.73237754,13.4518519 7.51827957,13.2377539 7.51827957,12.9739546 L7.51827957,2.99354839 C7.51827957,2.52520908 7.68267622,2.07598566 7.99235364,1.69749104 C8.29247312,1.33046595 8.70537634,1.05710872 9.19091995,0.902270012 C10.7775388,0.397610514 13.1689367,-0.158661888 15.5526882,0.0630824373 C15.7992832,0.0860215054 15.9866189,0.292473118 15.9866189,0.5390681 L15.9866189,13.8704898 C15.9866189,14.0043011 15.9311828,14.1304659 15.8336918,14.2203106 C15.7362007,14.3101553 15.6062127,14.3560335 15.4724014,14.3464755 C13.0905615,14.1686977 10.7221027,14.5433692 8.62317802,15.4284349 C8.42437276,15.5125448 8.21027479,15.5545998 7.99617682,15.5545998 Z" id="Shape"></path>
                    </g>
                </g>
            </g>
        </g>
    </g>
</svg>