<?xml version="1.0" encoding="UTF-8"?>
<svg width="14px" height="19px" viewBox="0 0 14 19" version="1.1" xmlns="http://www.w3.org/2000/svg" xmlns:xlink="http://www.w3.org/1999/xlink">
    <!-- Generator: Sketch 50 (54983) - http://www.bohemiancoding.com/sketch -->
    <title>icon-city</title>
    <desc>Created with Sketch.</desc>
    <defs></defs>
    <g id="Page-1" stroke="none" stroke-width="1" fill="none" fill-rule="evenodd">
        <g id="subscribe" transform="translate(-55.000000, -201.000000)" fill="#000000" fill-rule="nonzero">
            <g id="banner" transform="translate(0.000000, 64.000000)">
                <g id="icon-city" transform="translate(10.000000, 137.000000)">
                    <g transform="translate(45.000000, 0.000000)" id="Shape">
                        <path d="M13.4175323,4.21300269 C13.306078,3.93721774 12.9929973,3.80327688 12.7177957,3.9136586 C12.4425188,4.0239086 12.3079946,4.33710215 12.4172285,4.61284946 C12.7461344,5.43393817 12.9173333,6.21560484 12.9173333,6.99525806 C12.9173333,8.0050457 12.2932608,9.55791667 11.1732984,11.4660376 C10.7634973,12.161578 10.2969812,12.8917984 9.78312097,13.6451452 C9.08453226,14.6706075 8.33434677,15.6886183 7.58419892,16.6511559 C7.37670161,16.9170995 7.18105914,17.1637554 7.00001882,17.3885645 C6.81882796,17.1637554 6.62324194,16.9171183 6.41581989,16.6511559 C5.66555914,15.6886183 4.9158629,14.6705887 4.21667204,13.6451452 C3.70296237,12.8917796 3.23588172,12.1615591 2.82719086,11.4660376 C1.70666398,9.55791667 1.08249731,8.0050457 1.08249731,6.99525806 C1.08249731,3.74189516 3.74648656,1.07784946 7.00003763,1.07784946 C8.10216129,1.07784946 9.18955108,1.40673656 10.1562097,2.01663978 C10.4063844,2.17528763 10.7383763,2.10071505 10.8980403,1.84901613 C11.055578,1.59797581 10.9820027,1.26594624 10.7299839,1.10727957 C9.5951371,0.390682796 8.31014785,0.00193817204 7.00007527,0.00193817204 C3.1524086,0.00193817204 0.00669892473,3.14764785 0.00669892473,6.99522043 C0.00669892473,8.25347043 0.687486559,9.94775269 1.89948387,12.0112661 C2.32138441,12.72775 2.80095968,13.4779919 3.32789785,14.2512661 C4.04073118,15.2976909 4.80399462,16.3316774 5.56693817,17.3107742 C5.83433065,17.6543575 6.08217204,17.9663468 6.30494892,18.2395914 C6.43936022,18.4055403 6.53562903,18.5212097 6.58818548,18.5841344 C6.80296505,18.8405188 7.19694086,18.8405188 7.41185215,18.5841344 C7.46437097,18.5212097 7.56111022,18.4055403 7.69554032,18.2395914 C7.91822312,17.9663091 8.16619624,17.6543199 8.43304301,17.3107742 C9.19585484,16.3316398 9.9587043,15.2976909 10.6720833,14.2512661 C11.1984758,13.4779919 11.678578,12.7278253 12.0998952,12.0112661 C13.3124946,9.94767742 13.9932823,8.25345161 13.9932823,6.99522043 C13.9933199,6.06864247 13.793707,5.15446505 13.4175511,4.21304032 L13.4175323,4.21300269 Z M3.77236022,7.2106586 C3.77236022,8.90383065 5.14503763,10.2766022 6.83881183,10.2766022 C8.53181452,10.2766022 9.90516935,8.90381183 9.90516935,7.2106586 C9.90516935,5.51692204 8.53183333,4.14424462 6.83881183,4.14424462 C5.14505645,4.14424462 3.77236022,5.51688441 3.77236022,7.2106586 Z M8.82916398,7.2106586 C8.82916398,8.30967742 7.93724731,9.20072849 6.83875538,9.20072849 C5.73915323,9.20072849 4.84817742,8.3096586 4.84817742,7.2106586 C4.84817742,6.11118817 5.73911559,5.22025 6.83875538,5.22025 C7.93719086,5.22025 8.82916398,6.11118817 8.82916398,7.2106586 Z"></path>
                    </g>
                </g>
            </g>
        </g>
    </g>
</svg>