<?xml version="1.0" encoding="UTF-8"?>
<svg width="18px" height="17px" viewBox="0 0 18 17" version="1.1" xmlns="http://www.w3.org/2000/svg" xmlns:xlink="http://www.w3.org/1999/xlink">
    <!-- Generator: Sketch 50 (54983) - http://www.bohemiancoding.com/sketch -->
    <title>like</title>
    <desc>Created with Sketch.</desc>
    <defs></defs>
    <g id="Page-1" stroke="none" stroke-width="1" fill="none" fill-rule="evenodd">
        <g id="-" transform="translate(-382.000000, -81.000000)">
            <g id="like" transform="translate(381.000000, 79.000000)">
                <rect id="Rectangle-5" x="0" y="0" width="20" height="20"></rect>
                <path d="M13.8980945,2 C16.6795967,2 18.945175,4.48989303 18.945175,7.51814132 C18.945175,9.31265882 18.1376421,10.5912525 17.4871295,11.6231001 C15.5804547,14.584054 10.8249833,18.2852463 10.6231001,18.4422666 C10.4212169,18.5992869 10.1969022,18.6665813 9.9725875,18.6665813 C9.74827282,18.6665813 9.52395813,18.5992869 9.32207491,18.4422666 C9.12019169,18.2852463 4.34228885,14.6064854 2.45804547,11.6231001 C1.80753288,10.613684 1,9.33509029 1,7.51814132 C1,4.46746156 3.26557834,2 6.04708047,2 C7.59485182,2 9.03046582,2.78510141 9.9725875,4.06369513 C10.9147092,2.78510141 12.3503232,2 13.8980945,2 Z M16.1861044,11.6006686 C16.7693225,10.7034099 17.8011701,9.42481616 17.7787386,7.80975041 C17.7787386,5.07311122 16.1636729,3.16643638 13.6737799,3.16643638 C12.2830288,3.16643638 10.8025518,4.48989303 9.95015604,5.63389794 C9.12019169,4.48989303 7.61728328,3.16643638 6.22653222,3.16643638 C3.75907066,3.16643638 2.23373078,5.09554269 2.23373078,7.80975041 C2.23373078,9.42481616 3.17585247,10.5688211 3.75907066,11.4885113 C5.57601963,14.0232673 9.20991757,16.8496323 9.38936932,16.9842211 C9.56882107,17.1188099 9.77070429,17.1861044 9.9725875,17.1861044 C10.1744707,17.1861044 10.3763539,17.1188099 10.5558057,16.9842211 C10.7352574,16.8496323 14.4364498,14.0456987 16.1861044,11.6006686 Z" id="Combined-Shape" fill="#F26647" fill-rule="nonzero"></path>
            </g>
        </g>
    </g>
</svg>