<?xml version="1.0" encoding="UTF-8"?>
<svg width="17px" height="19px" viewBox="0 0 17 19" version="1.1" xmlns="http://www.w3.org/2000/svg" xmlns:xlink="http://www.w3.org/1999/xlink">
    <!-- Generator: Sketch 50 (54983) - http://www.bohemiancoding.com/sketch -->
    <title>shared</title>
    <desc>Created with Sketch.</desc>
    <defs></defs>
    <g id="Page-1" stroke="none" stroke-width="1" fill="none" fill-rule="evenodd">
        <g id="-" transform="translate(-328.000000, -107.000000)">
            <g id="shared" transform="translate(326.000000, 106.000000)">
                <rect id="Rectangle-6" x="0" y="0" width="21" height="21"></rect>
                <g id="share" transform="translate(2.000000, 1.000000)" fill="#F26647" fill-rule="nonzero">
                    <path d="M3.20221607,13.1218068 C1.43628809,13.1218068 0,11.6911898 0,9.93223443 C0,8.1732791 1.43628809,6.7426621 3.20221607,6.7426621 C4.96814404,6.7426621 6.40443213,8.1732791 6.40443213,9.93223443 C6.39265928,11.6911898 4.95637119,13.1218068 3.20221607,13.1218068 Z M3.20221607,7.69249798 C1.95429363,7.69249798 0.941828255,8.7009657 0.941828255,9.9439608 C0.941828255,11.1869559 1.95429363,12.1954236 3.20221607,12.1954236 C4.4501385,12.1954236 5.46260388,11.1869559 5.46260388,9.9439608 C5.45083102,8.7009657 4.43836565,7.69249798 3.20221607,7.69249798 Z M13.468144,6.37914466 C11.7022161,6.37914466 10.265928,4.94852766 10.265928,3.18957233 C10.265928,1.430617 11.7022161,0 13.468144,0 C15.234072,0 16.6703601,1.430617 16.6703601,3.18957233 C16.6703601,4.94852766 15.234072,6.37914466 13.468144,6.37914466 Z M13.468144,0.949835878 C12.2202216,0.949835878 11.2077562,1.9583036 11.2077562,3.2012987 C11.2077562,4.4442938 12.2202216,5.45276152 13.468144,5.45276152 C14.7160665,5.45276152 15.7285319,4.4442938 15.7285319,3.2012987 C15.7285319,1.9583036 14.7160665,0.949835878 13.468144,0.949835878 Z M13.7977839,18.9615385 C12.031856,18.9615385 10.5955679,17.5309215 10.5955679,15.7719661 C10.5955679,14.0130108 12.031856,12.5823938 13.7977839,12.5823938 C15.5637119,12.5823938 17,14.0130108 17,15.7719661 C17,17.5309215 15.5637119,18.9615385 13.7977839,18.9615385 Z M13.7977839,13.5322297 C12.5498615,13.5322297 11.5373961,14.5406974 11.5373961,15.7836925 C11.5373961,17.0266876 12.5498615,18.0351553 13.7977839,18.0351553 C15.0457064,18.0351553 16.0581717,17.0266876 16.0581717,15.7836925 C16.0581717,14.5406974 15.0457064,13.5322297 13.7977839,13.5322297 Z" id="Shape"></path>
                    <path d="M6.03139717,8.8935773 L5.50977594,8.07820928 C6.44384187,7.49066468 7.42643071,6.90312007 8.3847581,6.32756618 C9.33095476,5.75201228 10.3135436,5.16446768 11.2476095,4.57692308 L11.7692308,5.3922911 C10.8351648,5.9798357 9.852576,6.5673803 8.89424861,7.1429342 C7.94805195,7.71848809 6.96546311,8.30603269 6.03139717,8.8935773 Z M11.2112174,15.6923077 C10.2286285,15.1767073 9.2096475,14.6251348 8.21492793,14.0855531 C7.23233909,13.557962 6.20122734,13.0063895 5.23076923,12.4907891 L5.69173683,11.639449 C6.67432567,12.1550494 7.69330669,12.7066219 8.68802626,13.2462036 C9.6706151,13.7737947 10.7017268,14.3253672 11.672185,14.8409676 L11.2112174,15.6923077 Z" id="Shape"></path>
                </g>
            </g>
        </g>
    </g>
</svg>